<svg id="Capa_1" enable-background="new 0 0 512 512" height="512" viewBox="0 0 512 512" width="512" xmlns="http://www.w3.org/2000/svg"><g><path d="m512 256c0 140.67-112.436 254.425-253.097 255.984-5.353.059-10.669-.046-15.943-.31-5.045-.253-9.22-3.934-10.126-8.903-20.078-110.04-110.504-195.524-222.97-208.143-4.184-.469-7.538-3.722-8.038-7.902-1.219-10.188-1.84-20.558-1.826-31.077.191-142.281 117.504-257.676 259.771-255.622 139.646 2.016 252.229 115.847 252.229 255.973z" fill="#51489a"/><path d="m1.766 286.232 380.908-210.988c11.895-8.275 62.386 42.098 54.178 53.898l-193.245 382.563c-125.52-5.983-227.357-102.364-241.841-225.473z" fill="#5f55af"/><path d="m462.409 75.155-219.562 315.62-103.238-18.385 317.492-318.905 3.709 3.709c4.81 4.811 5.484 12.376 1.599 17.961z" fill="#55a4f9"/><path d="m139.61 372.39-18.385-103.238 315.542-219.507c5.63-3.916 13.256-3.237 18.106 1.612l3.642 3.642zm103.237 18.385 20.198-20.198-49.189-37.077z" fill="#1380e2"/><path d="m184.157 303.801-62.932-34.648 18.385-18.385z" fill="#4172cc"/><path d="m454.998 51.383-270.822 252.437-115.303-115.303c-5.219-5.219-3.179-14.1 3.794-16.519l361.549-125.389c7.27-2.521 15.341-.667 20.782 4.774zm5.619 5.619-246.78 276.478 109.646 109.646c5.219 5.219 14.1 3.179 16.519-3.794l125.389-361.548c2.521-7.27.667-15.341-4.774-20.782z" fill="#a7d0fc"/><path d="m465.391 77.785-70.574 203.494c-12.609 36.357-58.911 46.992-86.121 19.782-19.548-19.548-20.439-50.957-2.03-71.581l153.951-172.478c5.441 5.441 7.295 13.512 4.774 20.783zm-31.176-31.176-203.494 70.574c-36.357 12.609-46.992 58.91-19.782 86.121l3.521 3.521c19.856 19.856 51.871 20.418 72.412 1.271l168.126-156.713c-5.441-5.441-13.512-7.295-20.783-4.774z" fill="#c8e2fd"/><path d="m199.979 352.149-69.297 69.296c-.976.977-2.256 1.465-3.535 1.465s-2.56-.488-3.535-1.465c-1.953-1.952-1.953-5.118 0-7.07l69.297-69.296c1.951-1.953 5.119-1.953 7.07 0 1.953 1.952 1.953 5.118 0 7.07zm6.54 23.512c-1.951-1.953-5.119-1.953-7.07 0l-35.354 35.355c-1.953 1.952-1.953 5.118 0 7.07.976.977 2.256 1.465 3.535 1.465s2.56-.488 3.535-1.465l35.354-35.355c1.953-1.952 1.953-5.118 0-7.07zm-56.569 49.497-14.142 14.143c-1.952 1.952-1.952 5.118.001 7.071.977.976 2.256 1.464 3.535 1.464s2.56-.488 3.536-1.465l14.142-14.143c1.952-1.952 1.952-5.118-.001-7.071-1.953-1.951-5.118-1.952-7.071.001zm44.815-10.342-14.143 14.142c-1.953 1.953-1.953 5.119-.001 7.071.977.977 2.257 1.465 3.536 1.465s2.56-.488 3.535-1.464l14.143-14.142c1.953-1.953 1.953-5.119.001-7.071-1.953-1.953-5.12-1.952-7.071-.001z" fill="#fff"/></g></svg>